<svg xmlns="http://www.w3.org/2000/svg" version="1.1" xmlns:xlink="http://www.w3.org/1999/xlink" xmlns:svgjs="http://svgjs.dev/svgjs" width="89.900146484375" height="81.99992370605469"><svg viewBox="356.261962890625 191.39051818847656 89.900146484375 81.99992370605469" width="89.900146484375" height="81.99992370605469" xmlns="http://www.w3.org/2000/svg"><g transform="matrix(1, 0, 0, 1, 62.762020111083984, 15.690503120422363)">
			<path fill="#CCCCCC" d="M382.8,210.2c-0.6-1.4-1.6-1.8-2.6-2c-0.1,0-0.3,0-0.5-0.1c0,0,0,0,0,0c-0.2,0-0.4,0-0.7,0
				c0.1,0,0.2-0.1,0.3-0.1c0.8-0.3,1.7-0.6,2.4-1.5c0.4-0.5,0.6-1.1,0.5-1.6c-0.2-1.1-1.2-2-2-2.5c-0.9-0.6-2-0.9-3.1-0.9
				c0,0,0,0,0,0c-2.2,0-4.2,1.2-5.1,3.2c-1,2.2-1.7,4-2.1,6.2c-0.2,1.2-0.8,2.3-1.8,3.1c-0.3,0.3-0.8,0.4-1.3,0.5
				c0,0-0.1-0.1-0.1-0.1c-0.5-0.5-0.9-0.9-1.1-1.5c-0.2-0.7,0-1.8,0.3-2.7c0.1-0.3,0.2-0.6,0.2-0.9c0.4-1.8,0.6-3.8,0.7-6.4
				c0.2-4.4-1.5-8.3-3-11.9c-1.4-3.4-4.1-6.2-6.9-9c-3.1-3.1-7.5-5.2-12.2-6c-1.3-0.2-2.7-0.3-4-0.3c-0.1,0-0.1,0-0.2,0
				c-7.1,0-14.2,3-19.6,8.2c-2.9,2.9-4.8,6.9-6.4,10.4l-0.3,0.7c-0.8,1.7-1.6,3.4-2.1,5.2c-0.1,0.3-0.1,0.5-0.2,0.8
				c-0.2,0.8-0.4,1.6-0.7,2.4c-0.2,0.2-0.4,0.4-0.5,0.7c0,0.1,0,0.2,0,0.3c-0.2,0.2-0.5,0.6-1,1.4l-0.1,0.1c-0.5,0.7-1.3,1.4-2,1.4
				c0,0,0,0,0,0c-0.1,0-0.4,0-0.7-0.4c-0.5-0.6-0.8-1.7-1-2.8c-0.1-0.7-0.3-1.5-0.6-2.2c-0.8-2.1-2.9-4.4-5.6-4.4c0,0,0,0,0,0
				c-0.8,0-1.5,0.2-2.3,0.6c-1,0.6-2.7,3.1-2.3,4.8c0,0.2,0.1,0.4,0.2,0.5c-0.4,0.3-0.8,0.6-1,1c-0.7,1.1-0.8,2.6-0.3,3.5
				c0.4,0.7,1.1,1.2,2,1.2c0,0,0,0,0,0c0.3,0,0.6,0,0.8-0.1c0.1,0,0.2-0.1,0.3-0.1c-0.4,0.7-0.4,1.6-0.1,2.7c0.3,1,1.4,2,2.6,2
				c0,0,0,0,0,0c0.1,0,0.2,0,0.3,0c0.5-0.1,1-0.3,1.5-0.4l0.2-0.1c0.1,0,0.3-0.1,0.4-0.1c0,0,0,0,0,0c0.5,0,0.7,0.9,0.8,1.3
				c0.6,3.4,3.2,4.5,5.6,5c0,0.1,0,0.3,0,0.4c0,0.2,0,0.5,0,0.6c-0.4,3.2-0.9,6.5-1.5,9.8c-0.6,3.4-1.4,6.2-2.4,9
				c-1.2,3.3-1.3,6-0.3,8.2c0.7,1.7,2.5,2.7,4.8,2.7l0.1,0c1.2,0,2.5-0.8,3.9-1.6c1.2-0.7,2.6-1.5,3.6-1.5c0,0,0,0,0,0
				c0.4,0,0.7,0.2,1,0.5c0.3,0.4,0.5,0.9,0.7,1.5c0.2,0.5,0.4,1,0.6,1.5c0.6,1,1.3,1.8,2.2,2.6c2,1.6,4.6,2,6.4,2c0,0,0,0,0,0
				c0.2,0,0.5,0,0.7,0c2-0.1,3.6-1.1,5.1-2c0.6-0.4,1.2-0.7,1.8-1c0.4-0.2,0.7-0.3,1-0.3c0,0,0,0,0,0c1,0,1.9,1.1,2.8,2.2
				c0.7,0.9,1.5,1.8,2.4,2.4c1,0.6,2.3,0.9,3.6,1c0,0,0,0,0,0c1.1,0,2-0.2,2.8-0.6c0.5-0.2,0.9-0.5,1.3-0.8c0.7-0.5,1.3-0.9,2.1-1
				c0,0,0.1,0,0.1,0c0.2,0,0.4,0.1,0.7,0.3l0,0c0.1,0,0.1,0.1,0.2,0.1c0.2,0.2,0.5,0.4,0.7,0.6c0.4,0.4,0.8,0.7,1.2,0.9
				c1,0.6,2,0.9,2.9,0.9c0,0,0,0,0,0c1.2,0,2.3-0.5,3.3-1.5c2-2.2,3.5-6.6,4.3-13.3c0.6-5.2,0.6-10.2,0.5-11.7
				c0-0.6-0.1-1.2-0.2-1.9c-0.1-1-0.3-2.3-0.3-3.2c0.4,0.1,0.8,0.2,1.2,0.2c0,0,0,0,0,0c1.6,0,3.2-0.7,4.4-2c0.4-0.4,0.7-1,1-1.5
				c0.1-0.1,0.1-0.3,0.2-0.4c0.1-0.1,0.3-0.4,0.5-0.9c0.1-0.1,0.2-0.2,0.3-0.3c0.6-0.6,1.1-1.1,1.5-1.7c0.4,0,0.8,0.2,1.3,0.4
				c0.6,0.3,1.3,0.6,2,0.6c0,0,0,0,0,0c0.2,0,0.3,0,0.5,0c1.4-0.2,2.4-1.2,2.7-2.6c0.3-1.5-0.4-2.6-1.3-3.4c0.7-0.1,1.2-0.3,1.7-0.5
				C382.4,213.1,383.4,211.6,382.8,210.2z M333.9,203.9c-0.5,0.2-1,0.2-1.5,0.2c-2.1,0-4.1-1.4-4.8-3.5c-0.8-2.6,0.7-5.5,3.3-6.3
				c0.5-0.2,1-0.2,1.5-0.2c2.1,0,4.1,1.4,4.8,3.5C338,200.3,336.5,203.1,333.9,203.9z M349.5,206.9c-0.5,0.2-1,0.2-1.5,0.2
				c-2.1,0-4.1-1.4-4.8-3.5c-0.8-2.6,0.7-5.5,3.3-6.3c0.5-0.2,1-0.2,1.5-0.2c2.1,0,4.1,1.4,4.8,3.5
				C353.7,203.3,352.2,206.1,349.5,206.9z"></path>
		</g></svg><style>@media (prefers-color-scheme: light) { :root { filter: none; } }
@media (prefers-color-scheme: dark) { :root { filter: none; } }
</style></svg>